<?xml version="1.0" encoding="UTF-8" standalone="no"?>
<svg
   xmlns:dc="http://purl.org/dc/elements/1.1/"
   xmlns:cc="http://creativecommons.org/ns#"
   xmlns:rdf="http://www.w3.org/1999/02/22-rdf-syntax-ns#"
   xmlns:svg="http://www.w3.org/2000/svg"
   xmlns="http://www.w3.org/2000/svg"
   xmlns:sodipodi="http://sodipodi.sourceforge.net/DTD/sodipodi-0.dtd"
   xmlns:inkscape="http://www.inkscape.org/namespaces/inkscape"
   height="432pt"
   width="576pt"
   viewBox="0 0 576 432"
   version="1.1"
   id="svg397"
   sodipodi:docname="varying_K_total_corr_setup2.svg"
   inkscape:version="0.92.4 (5da689c313, 2019-01-14)">
  <metadata
     id="metadata401">
    <rdf:RDF>
      <cc:Work
         rdf:about="">
        <dc:format>image/svg+xml</dc:format>
        <dc:type
           rdf:resource="http://purl.org/dc/dcmitype/StillImage" />
      </cc:Work>
    </rdf:RDF>
  </metadata>
  <sodipodi:namedview
     pagecolor="#ffffff"
     bordercolor="#666666"
     borderopacity="1"
     objecttolerance="10"
     gridtolerance="10"
     guidetolerance="10"
     inkscape:pageopacity="0"
     inkscape:pageshadow="2"
     inkscape:window-width="1920"
     inkscape:window-height="1001"
     id="namedview399"
     showgrid="false"
     inkscape:zoom="1.1588694"
     inkscape:cx="388.89434"
     inkscape:cy="243.39632"
     inkscape:window-x="-9"
     inkscape:window-y="-9"
     inkscape:window-maximized="1"
     inkscape:current-layer="g293" />
  <title
     id="title2">gl2ps_renderer figure</title>
  <desc
     id="desc4">
Creator: GL2PS 1.4.0, (C) 1999-2017 C. Geuzaine
For: Octave
CreationDate: Sat May 25 01:45:52 2019
</desc>
  <defs
     id="defs6" />
  <polygon
     points="0,0 576,0 576,432 0,432"
     fill="#ffffff"
     id="polygon8" />
  <g
     id="g395">
    <polygon
       shape-rendering="crispEdges"
       points="0,432 576,432 576,0 0,0"
       fill="#ffffff"
       id="polygon10" />
    <clipPath
       id="cp00576432">
      <polygon
         points="0,432 576,432 576,0 0,0"
         id="polygon12" />
    </clipPath>
    <g
       clip-path="url(#cp00576432)"
       id="g293">
      <polygon
         shape-rendering="crispEdges"
         points="74.88,384.48 413.452,384.48 413.452,32.4 74.88,32.4"
         fill="#ffffff"
         id="polygon15" />
      <polyline
         stroke-width="0.5"
         stroke="#262626"
         points="74.88,384.48 74.88,380.958"
         stroke-linejoin="miter"
         fill="none"
         stroke-linecap="butt"
         id="polyline17" />
      <polyline
         stroke-width="0.5"
         stroke="#262626"
         points="74.88,32.4 74.88,35.9216"
         stroke-linejoin="miter"
         fill="none"
         stroke-linecap="butt"
         id="polyline19" />
      <polyline
         stroke-width="0.5"
         stroke="#262626"
         points="187.737,384.48 187.737,380.958"
         stroke-linejoin="miter"
         fill="none"
         stroke-linecap="butt"
         id="polyline21" />
      <polyline
         stroke-width="0.5"
         stroke="#262626"
         points="187.737,32.4 187.737,35.9216"
         stroke-linejoin="miter"
         fill="none"
         stroke-linecap="butt"
         id="polyline23" />
      <polyline
         stroke-width="0.5"
         stroke="#262626"
         points="300.595,384.48 300.595,380.958"
         stroke-linejoin="miter"
         fill="none"
         stroke-linecap="butt"
         id="polyline25" />
      <polyline
         stroke-width="0.5"
         stroke="#262626"
         points="300.595,32.4 300.595,35.9216"
         stroke-linejoin="miter"
         fill="none"
         stroke-linecap="butt"
         id="polyline27" />
      <polyline
         stroke-width="0.5"
         stroke="#262626"
         points="413.452,384.48 413.452,380.958"
         stroke-linejoin="miter"
         fill="none"
         stroke-linecap="butt"
         id="polyline29" />
      <polyline
         stroke-width="0.5"
         stroke="#262626"
         points="413.452,32.4 413.452,35.9216"
         stroke-linejoin="miter"
         fill="none"
         stroke-linecap="butt"
         id="polyline31" />
      <text
         xml:space="preserve"
         font-family="FreeSans"
         font-style="normal"
         font-size="15"
         transform="translate(70.88,407.733) rotate(-0,4,-12)"
         font-weight="normal"
         id="text35">
    <tspan
   x="0 "
   fill="rgb(38,38,38)"
   y="-0"
   id="tspan33">2</tspan>
   </text>
      <text
         xml:space="preserve"
         font-family="FreeSans"
         font-style="normal"
         font-size="15"
         transform="translate(183.737,407.733) rotate(-0,4,-12)"
         font-weight="normal"
         id="text39">
    <tspan
   x="0 "
   fill="rgb(38,38,38)"
   y="-0"
   id="tspan37">3</tspan>
   </text>
      <text
         xml:space="preserve"
         font-family="FreeSans"
         font-style="normal"
         font-size="15"
         transform="translate(296.595,407.733) rotate(-0,4,-12)"
         font-weight="normal"
         id="text43">
    <tspan
   x="0 "
   fill="rgb(38,38,38)"
   y="-0"
   id="tspan41">4</tspan>
   </text>
      <text
         xml:space="preserve"
         font-family="FreeSans"
         font-style="normal"
         font-size="15"
         transform="translate(409.452,407.733) rotate(-0,4,-12)"
         font-weight="normal"
         id="text47">
    <tspan
   x="0 "
   fill="rgb(38,38,38)"
   y="-0"
   id="tspan45">5</tspan>
   </text>
      <polyline
         stroke-width="0.5"
         stroke="#262626"
         points="74.88,384.48 78.3964,384.48"
         stroke-linejoin="miter"
         fill="none"
         stroke-linecap="butt"
         id="polyline49" />
      <polyline
         stroke-width="0.5"
         stroke="#262626"
         points="413.452,384.48 409.936,384.48"
         stroke-linejoin="miter"
         fill="none"
         stroke-linecap="butt"
         id="polyline51" />
      <polyline
         stroke-width="0.5"
         stroke="#262626"
         points="74.88,334.183 78.3964,334.183"
         stroke-linejoin="miter"
         fill="none"
         stroke-linecap="butt"
         id="polyline53" />
      <polyline
         stroke-width="0.5"
         stroke="#262626"
         points="413.452,334.183 409.936,334.183"
         stroke-linejoin="miter"
         fill="none"
         stroke-linecap="butt"
         id="polyline55" />
      <polyline
         stroke-width="0.5"
         stroke="#262626"
         points="74.88,283.886 78.3964,283.886"
         stroke-linejoin="miter"
         fill="none"
         stroke-linecap="butt"
         id="polyline57" />
      <polyline
         stroke-width="0.5"
         stroke="#262626"
         points="413.452,283.886 409.936,283.886"
         stroke-linejoin="miter"
         fill="none"
         stroke-linecap="butt"
         id="polyline59" />
      <polyline
         stroke-width="0.5"
         stroke="#262626"
         points="74.88,233.589 78.3964,233.589"
         stroke-linejoin="miter"
         fill="none"
         stroke-linecap="butt"
         id="polyline61" />
      <polyline
         stroke-width="0.5"
         stroke="#262626"
         points="413.452,233.589 409.936,233.589"
         stroke-linejoin="miter"
         fill="none"
         stroke-linecap="butt"
         id="polyline63" />
      <polyline
         stroke-width="0.5"
         stroke="#262626"
         points="74.88,183.291 78.3964,183.291"
         stroke-linejoin="miter"
         fill="none"
         stroke-linecap="butt"
         id="polyline65" />
      <polyline
         stroke-width="0.5"
         stroke="#262626"
         points="413.452,183.291 409.936,183.291"
         stroke-linejoin="miter"
         fill="none"
         stroke-linecap="butt"
         id="polyline67" />
      <polyline
         stroke-width="0.5"
         stroke="#262626"
         points="74.88,132.994 78.3964,132.994"
         stroke-linejoin="miter"
         fill="none"
         stroke-linecap="butt"
         id="polyline69" />
      <polyline
         stroke-width="0.5"
         stroke="#262626"
         points="413.452,132.994 409.936,132.994"
         stroke-linejoin="miter"
         fill="none"
         stroke-linecap="butt"
         id="polyline71" />
      <polyline
         stroke-width="0.5"
         stroke="#262626"
         points="74.88,82.6971 78.3964,82.6971"
         stroke-linejoin="miter"
         fill="none"
         stroke-linecap="butt"
         id="polyline73" />
      <polyline
         stroke-width="0.5"
         stroke="#262626"
         points="413.452,82.6971 409.936,82.6971"
         stroke-linejoin="miter"
         fill="none"
         stroke-linecap="butt"
         id="polyline75" />
      <polyline
         stroke-width="0.5"
         stroke="#262626"
         points="74.88,32.4 78.3964,32.4"
         stroke-linejoin="miter"
         fill="none"
         stroke-linecap="butt"
         id="polyline77" />
      <polyline
         stroke-width="0.5"
         stroke="#262626"
         points="413.452,32.4 409.936,32.4"
         stroke-linejoin="miter"
         fill="none"
         stroke-linecap="butt"
         id="polyline79" />
      <text
         xml:space="preserve"
         font-family="FreeSans"
         font-style="normal"
         font-size="15"
         transform="translate(59.3895,390.48) rotate(-0,8,-6)"
         font-weight="normal"
         id="text83">
    <tspan
   x="0 "
   fill="rgb(38,38,38)"
   y="-0"
   id="tspan81">0</tspan>
   </text>
      <text
         xml:space="preserve"
         font-family="FreeSans"
         font-style="normal"
         font-size="15"
         transform="translate(47.3895,340.183) rotate(-0,20,-6)"
         font-weight="normal"
         id="text87">
    <tspan
   x="0 8 12 "
   fill="rgb(38,38,38)"
   y="-0"
   id="tspan85">0.1</tspan>
   </text>
      <text
         xml:space="preserve"
         font-family="FreeSans"
         font-style="normal"
         font-size="15"
         transform="translate(47.3895,289.886) rotate(-0,20,-6)"
         font-weight="normal"
         id="text91">
    <tspan
   x="0 8 12 "
   fill="rgb(38,38,38)"
   y="-0"
   id="tspan89">0.2</tspan>
   </text>
      <text
         xml:space="preserve"
         font-family="FreeSans"
         font-style="normal"
         font-size="15"
         transform="translate(47.3895,239.589) rotate(-0,20,-6)"
         font-weight="normal"
         id="text95">
    <tspan
   x="0 8 12 "
   fill="rgb(38,38,38)"
   y="-0"
   id="tspan93">0.3</tspan>
   </text>
      <text
         xml:space="preserve"
         font-family="FreeSans"
         font-style="normal"
         font-size="15"
         transform="translate(47.3895,189.291) rotate(-0,20,-6)"
         font-weight="normal"
         id="text99">
    <tspan
   x="0 8 12 "
   fill="rgb(38,38,38)"
   y="-0"
   id="tspan97">0.4</tspan>
   </text>
      <text
         xml:space="preserve"
         font-family="FreeSans"
         font-style="normal"
         font-size="15"
         transform="translate(47.3895,138.994) rotate(-0,20,-6)"
         font-weight="normal"
         id="text103">
    <tspan
   x="0 8 12 "
   fill="rgb(38,38,38)"
   y="-0"
   id="tspan101">0.5</tspan>
   </text>
      <text
         xml:space="preserve"
         font-family="FreeSans"
         font-style="normal"
         font-size="15"
         transform="translate(47.3895,88.6971) rotate(-0,20,-6)"
         font-weight="normal"
         id="text107">
    <tspan
   x="0 8 12 "
   fill="rgb(38,38,38)"
   y="-0"
   id="tspan105">0.6</tspan>
   </text>
      <text
         xml:space="preserve"
         font-family="FreeSans"
         font-style="normal"
         font-size="15"
         transform="translate(47.3895,38.4) rotate(-0,20,-6)"
         font-weight="normal"
         id="text111">
    <tspan
   x="0 8 12 "
   fill="rgb(38,38,38)"
   y="-0"
   id="tspan109">0.7</tspan>
   </text>
      <polyline
         stroke-width="0.5"
         stroke="#262626"
         points="74.88,384.48 413.452,384.48"
         stroke-linejoin="miter"
         fill="none"
         stroke-dasharray="16,0"
         stroke-linecap="square"
         id="polyline113" />
      <polyline
         stroke-width="0.5"
         stroke="#262626"
         points="74.88,32.4 413.452,32.4"
         stroke-linejoin="miter"
         fill="none"
         stroke-dasharray="16,0"
         stroke-linecap="square"
         id="polyline115" />
      <polyline
         stroke-width="0.5"
         stroke="#262626"
         points="74.88,384.48 74.88,32.4"
         stroke-linejoin="miter"
         fill="none"
         stroke-dasharray="16,0"
         stroke-linecap="square"
         id="polyline117" />
      <polyline
         stroke-width="0.5"
         stroke="#262626"
         points="413.452,384.48 413.452,32.4"
         stroke-linejoin="miter"
         fill="none"
         stroke-dasharray="16,0"
         stroke-linecap="square"
         id="polyline119" />
      <text
         xml:space="preserve"
         font-style="normal"
         font-size="16.5"
         font-weight="normal"
         id="text123"
         style="font-style:normal;font-weight:normal;font-size:16.5px;font-family:FreeSans"
         x="190.32779"
         y="428.04092">K (dimensão)</text>
      <text
         xml:space="preserve"
         font-style="normal"
         font-size="16.5"
         transform="rotate(-90,168.91475,126.52525)"
         font-weight="normal"
         id="text127"
         style="font-style:normal;font-weight:normal;font-size:16.5px;font-family:FreeSans">correlação total [bits]  </text>
      <text
         xml:space="preserve"
         font-style="normal"
         font-size="16.5"
         transform="translate(96.6662,22.4)"
         font-weight="bold"
         id="text131"
         style="font-style:normal;font-weight:bold;font-size:16.5px;font-family:FreeSans">correlação total média T = 16384  </text>
      <polyline
         stroke-width="2"
         stroke="#0000ff"
         points="74.88,381.391 187.737,372.716 300.595,356.935 413.452,333.689"
         stroke-linejoin="round"
         fill="none"
         stroke-linecap="butt"
         id="polyline133" />
      <polyline
         stroke-width="2"
         stroke="#0000ff"
         points="81.38,381.391 81.1167,383.222 80.3482,384.905 79.1366,386.303 77.5802,387.304 75.805,387.825 73.9549,387.825 72.1798,387.304 70.6234,386.303 69.4118,384.905 68.6433,383.222 68.38,381.391 68.6433,379.56 69.4118,377.877 70.6234,376.479 72.1798,375.478 73.9549,374.957 75.805,374.957 77.5802,375.478 79.1366,376.479 80.3482,377.877 81.1167,379.56 81.38,381.391 81.38,381.391"
         stroke-linejoin="round"
         fill="none"
         stroke-linecap="round"
         id="polyline135" />
      <polyline
         stroke-width="2"
         stroke="#0000ff"
         points="194.237,372.716 193.974,374.548 193.206,376.231 191.994,377.629 190.438,378.629 188.662,379.15 186.812,379.15 185.037,378.629 183.481,377.629 182.269,376.231 181.501,374.548 181.237,372.716 181.501,370.885 182.269,369.202 183.481,367.804 185.037,366.804 186.812,366.283 188.662,366.283 190.438,366.804 191.994,367.804 193.206,369.202 193.974,370.885 194.237,372.716 194.237,372.716"
         stroke-linejoin="round"
         fill="none"
         stroke-linecap="round"
         id="polyline137" />
      <polyline
         stroke-width="2"
         stroke="#0000ff"
         points="307.095,356.935 306.832,358.766 306.063,360.449 304.852,361.847 303.295,362.848 301.52,363.369 299.67,363.369 297.895,362.848 296.338,361.847 295.127,360.449 294.358,358.766 294.095,356.935 294.358,355.104 295.127,353.421 296.338,352.023 297.895,351.022 299.67,350.501 301.52,350.501 303.295,351.022 304.852,352.023 306.063,353.421 306.832,355.104 307.095,356.935 307.095,356.935"
         stroke-linejoin="round"
         fill="none"
         stroke-linecap="round"
         id="polyline139" />
      <polyline
         stroke-width="2"
         stroke="#0000ff"
         points="419.952,333.689 419.689,335.52 418.92,337.203 417.709,338.601 416.153,339.602 414.377,340.123 412.527,340.123 410.752,339.602 409.196,338.601 407.984,337.203 407.216,335.52 406.952,333.689 407.216,331.858 407.984,330.175 409.196,328.777 410.752,327.776 412.527,327.255 414.377,327.255 416.153,327.776 417.709,328.777 418.92,330.175 419.689,331.858 419.952,333.689 419.952,333.689"
         stroke-linejoin="round"
         fill="none"
         stroke-linecap="round"
         id="polyline141" />
      <polyline
         stroke-width="2"
         stroke="#ff0000"
         points="74.88,381.391 187.737,372.716 300.595,356.881 413.452,333.523"
         stroke-linejoin="round"
         fill="none"
         stroke-linecap="butt"
         id="polyline143" />
      <polyline
         stroke-width="2"
         stroke="#ff0000"
         points="68.38,381.391 81.38,381.391"
         stroke-linejoin="miter"
         fill="none"
         stroke-linecap="square"
         id="polyline145" />
      <polyline
         stroke-width="2"
         stroke="#ff0000"
         points="74.88,374.891 74.88,387.891"
         stroke-linejoin="miter"
         fill="none"
         stroke-linecap="square"
         id="polyline147" />
      <polyline
         stroke-width="2"
         stroke="#ff0000"
         points="181.237,372.716 194.237,372.716"
         stroke-linejoin="miter"
         fill="none"
         stroke-linecap="square"
         id="polyline149" />
      <polyline
         stroke-width="2"
         stroke="#ff0000"
         points="187.737,366.216 187.737,379.216"
         stroke-linejoin="miter"
         fill="none"
         stroke-linecap="square"
         id="polyline151" />
      <polyline
         stroke-width="2"
         stroke="#ff0000"
         points="294.095,356.881 307.095,356.881"
         stroke-linejoin="miter"
         fill="none"
         stroke-linecap="square"
         id="polyline153" />
      <polyline
         stroke-width="2"
         stroke="#ff0000"
         points="300.595,350.381 300.595,363.381"
         stroke-linejoin="miter"
         fill="none"
         stroke-linecap="square"
         id="polyline155" />
      <polyline
         stroke-width="2"
         stroke="#ff0000"
         points="406.952,333.523 419.952,333.523"
         stroke-linejoin="miter"
         fill="none"
         stroke-linecap="square"
         id="polyline157" />
      <polyline
         stroke-width="2"
         stroke="#ff0000"
         points="413.452,327.023 413.452,340.023"
         stroke-linejoin="miter"
         fill="none"
         stroke-linecap="square"
         id="polyline159" />
      <polyline
         stroke-width="2"
         stroke="#ff00ff"
         points="74.88,381.391 187.737,375.815 300.595,339.43 413.452,304.099"
         stroke-linejoin="round"
         fill="none"
         stroke-linecap="butt"
         id="polyline161" />
      <polyline
         stroke-width="2"
         stroke="#ff00ff"
         points="68.38,381.391 81.38,381.391"
         stroke-linejoin="miter"
         fill="none"
         stroke-linecap="square"
         id="polyline163" />
      <polyline
         stroke-width="2"
         stroke="#ff00ff"
         points="74.88,374.891 74.88,387.891"
         stroke-linejoin="miter"
         fill="none"
         stroke-linecap="square"
         id="polyline165" />
      <polyline
         stroke-width="2"
         stroke="#ff00ff"
         points="70.2838,376.795 79.4762,385.987"
         stroke-linejoin="miter"
         fill="none"
         stroke-linecap="square"
         id="polyline167" />
      <polyline
         stroke-width="2"
         stroke="#ff00ff"
         points="70.2838,385.987 79.4762,376.795"
         stroke-linejoin="miter"
         fill="none"
         stroke-linecap="square"
         id="polyline169" />
      <polyline
         stroke-width="2"
         stroke="#ff00ff"
         points="181.237,375.815 194.237,375.815"
         stroke-linejoin="miter"
         fill="none"
         stroke-linecap="square"
         id="polyline171" />
      <polyline
         stroke-width="2"
         stroke="#ff00ff"
         points="187.737,369.315 187.737,382.315"
         stroke-linejoin="miter"
         fill="none"
         stroke-linecap="square"
         id="polyline173" />
      <polyline
         stroke-width="2"
         stroke="#ff00ff"
         points="183.141,371.219 192.334,380.411"
         stroke-linejoin="miter"
         fill="none"
         stroke-linecap="square"
         id="polyline175" />
      <polyline
         stroke-width="2"
         stroke="#ff00ff"
         points="183.141,380.411 192.334,371.219"
         stroke-linejoin="miter"
         fill="none"
         stroke-linecap="square"
         id="polyline177" />
      <polyline
         stroke-width="2"
         stroke="#ff00ff"
         points="294.095,339.43 307.095,339.43"
         stroke-linejoin="miter"
         fill="none"
         stroke-linecap="square"
         id="polyline179" />
      <polyline
         stroke-width="2"
         stroke="#ff00ff"
         points="300.595,332.93 300.595,345.93"
         stroke-linejoin="miter"
         fill="none"
         stroke-linecap="square"
         id="polyline181" />
      <polyline
         stroke-width="2"
         stroke="#ff00ff"
         points="295.999,334.834 305.191,344.026"
         stroke-linejoin="miter"
         fill="none"
         stroke-linecap="square"
         id="polyline183" />
      <polyline
         stroke-width="2"
         stroke="#ff00ff"
         points="295.999,344.026 305.191,334.834"
         stroke-linejoin="miter"
         fill="none"
         stroke-linecap="square"
         id="polyline185" />
      <polyline
         stroke-width="2"
         stroke="#ff00ff"
         points="406.952,304.099 419.952,304.099"
         stroke-linejoin="miter"
         fill="none"
         stroke-linecap="square"
         id="polyline187" />
      <polyline
         stroke-width="2"
         stroke="#ff00ff"
         points="413.452,297.599 413.452,310.599"
         stroke-linejoin="miter"
         fill="none"
         stroke-linecap="square"
         id="polyline189" />
      <polyline
         stroke-width="2"
         stroke="#ff00ff"
         points="408.856,299.503 418.049,308.695"
         stroke-linejoin="miter"
         fill="none"
         stroke-linecap="square"
         id="polyline191" />
      <polyline
         stroke-width="2"
         stroke="#ff00ff"
         points="408.856,308.695 418.049,299.503"
         stroke-linejoin="miter"
         fill="none"
         stroke-linecap="square"
         id="polyline193" />
      <polyline
         stroke-width="2"
         stroke="#00ff00"
         points="74.88,381.391 187.737,372.716 300.595,356.935 413.452,333.689"
         stroke-linejoin="round"
         fill="none"
         stroke-linecap="butt"
         id="polyline195" />
      <polyline
         stroke-width="2"
         stroke="#00ff00"
         points="68.38,374.891 81.38,387.891"
         stroke-linejoin="miter"
         fill="none"
         stroke-linecap="square"
         id="polyline197" />
      <polyline
         stroke-width="2"
         stroke="#00ff00"
         points="68.38,387.891 81.38,374.891"
         stroke-linejoin="miter"
         fill="none"
         stroke-linecap="square"
         id="polyline199" />
      <polyline
         stroke-width="2"
         stroke="#00ff00"
         points="181.237,366.216 194.237,379.216"
         stroke-linejoin="miter"
         fill="none"
         stroke-linecap="square"
         id="polyline201" />
      <polyline
         stroke-width="2"
         stroke="#00ff00"
         points="181.237,379.216 194.237,366.216"
         stroke-linejoin="miter"
         fill="none"
         stroke-linecap="square"
         id="polyline203" />
      <polyline
         stroke-width="2"
         stroke="#00ff00"
         points="294.095,350.435 307.095,363.435"
         stroke-linejoin="miter"
         fill="none"
         stroke-linecap="square"
         id="polyline205" />
      <polyline
         stroke-width="2"
         stroke="#00ff00"
         points="294.095,363.435 307.095,350.435"
         stroke-linejoin="miter"
         fill="none"
         stroke-linecap="square"
         id="polyline207" />
      <polyline
         stroke-width="2"
         stroke="#00ff00"
         points="406.952,327.189 419.952,340.189"
         stroke-linejoin="miter"
         fill="none"
         stroke-linecap="square"
         id="polyline209" />
      <polyline
         stroke-width="2"
         stroke="#00ff00"
         points="406.952,340.189 419.952,327.189"
         stroke-linejoin="miter"
         fill="none"
         stroke-linecap="square"
         id="polyline211" />
      <polyline
         stroke-width="2"
         stroke="#0000ff"
         points="74.88,375.493 187.737,350.322 300.595,307.58 413.452,247.709"
         stroke-linejoin="round"
         fill="none"
         stroke-dasharray="8,8,8,8"
         stroke-linecap="butt"
         id="polyline213" />
      <polyline
         stroke-width="2"
         stroke="#0000ff"
         points="81.38,375.493 81.1167,377.325 80.3482,379.008 79.1366,380.406 77.5802,381.406 75.805,381.927 73.9549,381.927 72.1798,381.406 70.6234,380.406 69.4118,379.008 68.6433,377.325 68.38,375.493 68.6433,373.662 69.4118,371.979 70.6234,370.581 72.1798,369.581 73.9549,369.06 75.805,369.06 77.5802,369.581 79.1366,370.581 80.3482,371.979 81.1167,373.662 81.38,375.493 81.38,375.493"
         stroke-linejoin="round"
         fill="none"
         stroke-linecap="round"
         id="polyline215" />
      <polyline
         stroke-width="2"
         stroke="#0000ff"
         points="194.237,350.322 193.974,352.153 193.206,353.836 191.994,355.234 190.438,356.234 188.662,356.756 186.812,356.756 185.037,356.234 183.481,355.234 182.269,353.836 181.501,352.153 181.237,350.322 181.501,348.491 182.269,346.808 183.481,345.409 185.037,344.409 186.812,343.888 188.662,343.888 190.438,344.409 191.994,345.409 193.206,346.808 193.974,348.491 194.237,350.322 194.237,350.322"
         stroke-linejoin="round"
         fill="none"
         stroke-linecap="round"
         id="polyline217" />
      <polyline
         stroke-width="2"
         stroke="#0000ff"
         points="307.095,307.58 306.832,309.411 306.063,311.094 304.852,312.492 303.295,313.492 301.52,314.014 299.67,314.014 297.895,313.492 296.338,312.492 295.127,311.094 294.358,309.411 294.095,307.58 294.358,305.749 295.127,304.066 296.338,302.667 297.895,301.667 299.67,301.146 301.52,301.146 303.295,301.667 304.852,302.667 306.063,304.066 306.832,305.749 307.095,307.58 307.095,307.58"
         stroke-linejoin="round"
         fill="none"
         stroke-linecap="round"
         id="polyline219" />
      <polyline
         stroke-width="2"
         stroke="#0000ff"
         points="419.952,247.709 419.689,249.54 418.92,251.223 417.709,252.622 416.153,253.622 414.377,254.143 412.527,254.143 410.752,253.622 409.196,252.622 407.984,251.223 407.216,249.54 406.952,247.709 407.216,245.878 407.984,244.195 409.196,242.797 410.752,241.797 412.527,241.275 414.377,241.275 416.153,241.797 417.709,242.797 418.92,244.195 419.689,245.878 419.952,247.709 419.952,247.709"
         stroke-linejoin="round"
         fill="none"
         stroke-linecap="round"
         id="polyline221" />
      <polyline
         stroke-width="2"
         stroke="#ff0000"
         points="74.88,375.493 187.737,350.307 300.595,307.102 413.452,246.331"
         stroke-linejoin="round"
         fill="none"
         stroke-dasharray="8,8,8,8"
         stroke-linecap="butt"
         id="polyline223" />
      <polyline
         stroke-width="2"
         stroke="#ff0000"
         points="68.38,375.493 81.38,375.493"
         stroke-linejoin="miter"
         fill="none"
         stroke-linecap="square"
         id="polyline225" />
      <polyline
         stroke-width="2"
         stroke="#ff0000"
         points="74.88,368.993 74.88,381.993"
         stroke-linejoin="miter"
         fill="none"
         stroke-linecap="square"
         id="polyline227" />
      <polyline
         stroke-width="2"
         stroke="#ff0000"
         points="181.237,350.307 194.237,350.307"
         stroke-linejoin="miter"
         fill="none"
         stroke-linecap="square"
         id="polyline229" />
      <polyline
         stroke-width="2"
         stroke="#ff0000"
         points="187.737,343.807 187.737,356.807"
         stroke-linejoin="miter"
         fill="none"
         stroke-linecap="square"
         id="polyline231" />
      <polyline
         stroke-width="2"
         stroke="#ff0000"
         points="294.095,307.102 307.095,307.102"
         stroke-linejoin="miter"
         fill="none"
         stroke-linecap="square"
         id="polyline233" />
      <polyline
         stroke-width="2"
         stroke="#ff0000"
         points="300.595,300.602 300.595,313.602"
         stroke-linejoin="miter"
         fill="none"
         stroke-linecap="square"
         id="polyline235" />
      <polyline
         stroke-width="2"
         stroke="#ff0000"
         points="406.952,246.331 419.952,246.331"
         stroke-linejoin="miter"
         fill="none"
         stroke-linecap="square"
         id="polyline237" />
      <polyline
         stroke-width="2"
         stroke="#ff0000"
         points="413.452,239.831 413.452,252.831"
         stroke-linejoin="miter"
         fill="none"
         stroke-linecap="square"
         id="polyline239" />
      <polyline
         stroke-width="2"
         stroke="#ff00ff"
         points="74.88,364.923 187.737,306.104 300.595,223.174 413.452,69.9234"
         stroke-linejoin="round"
         fill="none"
         stroke-dasharray="8,8,8,8"
         stroke-linecap="butt"
         id="polyline241" />
      <polyline
         stroke-width="2"
         stroke="#ff00ff"
         points="68.38,364.923 81.38,364.923"
         stroke-linejoin="miter"
         fill="none"
         stroke-linecap="square"
         id="polyline243" />
      <polyline
         stroke-width="2"
         stroke="#ff00ff"
         points="74.88,358.423 74.88,371.423"
         stroke-linejoin="miter"
         fill="none"
         stroke-linecap="square"
         id="polyline245" />
      <polyline
         stroke-width="2"
         stroke="#ff00ff"
         points="70.2838,360.327 79.4762,369.519"
         stroke-linejoin="miter"
         fill="none"
         stroke-linecap="square"
         id="polyline247" />
      <polyline
         stroke-width="2"
         stroke="#ff00ff"
         points="70.2838,369.519 79.4762,360.327"
         stroke-linejoin="miter"
         fill="none"
         stroke-linecap="square"
         id="polyline249" />
      <polyline
         stroke-width="2"
         stroke="#ff00ff"
         points="181.237,306.104 194.237,306.104"
         stroke-linejoin="miter"
         fill="none"
         stroke-linecap="square"
         id="polyline251" />
      <polyline
         stroke-width="2"
         stroke="#ff00ff"
         points="187.737,299.604 187.737,312.604"
         stroke-linejoin="miter"
         fill="none"
         stroke-linecap="square"
         id="polyline253" />
      <polyline
         stroke-width="2"
         stroke="#ff00ff"
         points="183.141,301.507 192.334,310.7"
         stroke-linejoin="miter"
         fill="none"
         stroke-linecap="square"
         id="polyline255" />
      <polyline
         stroke-width="2"
         stroke="#ff00ff"
         points="183.141,310.7 192.334,301.507"
         stroke-linejoin="miter"
         fill="none"
         stroke-linecap="square"
         id="polyline257" />
      <polyline
         stroke-width="2"
         stroke="#ff00ff"
         points="294.095,223.174 307.095,223.174"
         stroke-linejoin="miter"
         fill="none"
         stroke-linecap="square"
         id="polyline259" />
      <polyline
         stroke-width="2"
         stroke="#ff00ff"
         points="300.595,216.674 300.595,229.674"
         stroke-linejoin="miter"
         fill="none"
         stroke-linecap="square"
         id="polyline261" />
      <polyline
         stroke-width="2"
         stroke="#ff00ff"
         points="295.999,218.578 305.191,227.77"
         stroke-linejoin="miter"
         fill="none"
         stroke-linecap="square"
         id="polyline263" />
      <polyline
         stroke-width="2"
         stroke="#ff00ff"
         points="295.999,227.77 305.191,218.578"
         stroke-linejoin="miter"
         fill="none"
         stroke-linecap="square"
         id="polyline265" />
      <polyline
         stroke-width="2"
         stroke="#ff00ff"
         points="406.952,69.9234 419.952,69.9234"
         stroke-linejoin="miter"
         fill="none"
         stroke-linecap="square"
         id="polyline267" />
      <polyline
         stroke-width="2"
         stroke="#ff00ff"
         points="413.452,63.4234 413.452,76.4234"
         stroke-linejoin="miter"
         fill="none"
         stroke-linecap="square"
         id="polyline269" />
      <polyline
         stroke-width="2"
         stroke="#ff00ff"
         points="408.856,65.3272 418.049,74.5196"
         stroke-linejoin="miter"
         fill="none"
         stroke-linecap="square"
         id="polyline271" />
      <polyline
         stroke-width="2"
         stroke="#ff00ff"
         points="408.856,74.5196 418.049,65.3272"
         stroke-linejoin="miter"
         fill="none"
         stroke-linecap="square"
         id="polyline273" />
      <polyline
         stroke-width="2"
         stroke="#00ff00"
         points="74.88,375.493 187.737,350.322 300.595,307.58 413.452,247.709"
         stroke-linejoin="round"
         fill="none"
         stroke-dasharray="8,8,8,8"
         stroke-linecap="butt"
         id="polyline275" />
      <polyline
         stroke-width="2"
         stroke="#00ff00"
         points="68.38,368.993 81.38,381.993"
         stroke-linejoin="miter"
         fill="none"
         stroke-linecap="square"
         id="polyline277" />
      <polyline
         stroke-width="2"
         stroke="#00ff00"
         points="68.38,381.993 81.38,368.993"
         stroke-linejoin="miter"
         fill="none"
         stroke-linecap="square"
         id="polyline279" />
      <polyline
         stroke-width="2"
         stroke="#00ff00"
         points="181.237,343.822 194.237,356.822"
         stroke-linejoin="miter"
         fill="none"
         stroke-linecap="square"
         id="polyline281" />
      <polyline
         stroke-width="2"
         stroke="#00ff00"
         points="181.237,356.822 194.237,343.822"
         stroke-linejoin="miter"
         fill="none"
         stroke-linecap="square"
         id="polyline283" />
      <polyline
         stroke-width="2"
         stroke="#00ff00"
         points="294.095,301.08 307.095,314.08"
         stroke-linejoin="miter"
         fill="none"
         stroke-linecap="square"
         id="polyline285" />
      <polyline
         stroke-width="2"
         stroke="#00ff00"
         points="294.095,314.08 307.095,301.08"
         stroke-linejoin="miter"
         fill="none"
         stroke-linecap="square"
         id="polyline287" />
      <polyline
         stroke-width="2"
         stroke="#00ff00"
         points="406.952,241.209 419.952,254.209"
         stroke-linejoin="miter"
         fill="none"
         stroke-linecap="square"
         id="polyline289" />
      <polyline
         stroke-width="2"
         stroke="#00ff00"
         points="406.952,254.209 419.952,241.209"
         stroke-linejoin="miter"
         fill="none"
         stroke-linecap="square"
         id="polyline291" />
    </g>
    <clipPath
       id="clipPath297">
      <polygon
         points="0,432 576,432 576,0 0,0"
         id="polygon295" />
    </clipPath>
    <g
       clip-path="url(#cp00576432)"
       id="g393">
      <polygon
         shape-rendering="crispEdges"
         points="429.675,204.263 567.889,204.263 567.889,32.4 429.675,32.4"
         fill="#ffffff"
         id="polygon299" />
      <polyline
         stroke-width="0.5"
         stroke="#262626"
         points="429.675,204.263 567.889,204.263"
         stroke-linejoin="miter"
         fill="none"
         stroke-dasharray="16,0"
         stroke-linecap="square"
         id="polyline301" />
      <polyline
         stroke-width="0.5"
         stroke="#262626"
         points="429.675,32.4 567.889,32.4"
         stroke-linejoin="miter"
         fill="none"
         stroke-dasharray="16,0"
         stroke-linecap="square"
         id="polyline303" />
      <polyline
         stroke-width="0.5"
         stroke="#262626"
         points="429.675,204.263 429.675,32.4"
         stroke-linejoin="miter"
         fill="none"
         stroke-dasharray="16,0"
         stroke-linecap="square"
         id="polyline305" />
      <polyline
         stroke-width="0.5"
         stroke="#262626"
         points="567.889,204.263 567.889,32.4"
         stroke-linejoin="miter"
         fill="none"
         stroke-dasharray="16,0"
         stroke-linecap="square"
         id="polyline307" />
      <text
         xml:space="preserve"
         font-family="FreeSans"
         font-style="normal"
         font-size="15"
         transform="translate(469.557,49.1415) rotate(-0,-0,-6)"
         font-weight="normal"
         id="text311">
    <tspan
   x="0 8 20 28 33 36 44 52 56 66 70 79 83 "
   fill="rgb(0,0,0)"
   y="-0"
   id="tspan309">america P = 2</tspan>
   </text>
      <text
         xml:space="preserve"
         font-family="FreeSans"
         font-style="normal"
         font-size="15"
         transform="translate(469.557,70.6244) rotate(-0,-0,-6)"
         font-weight="normal"
         id="text315">
    <tspan
   x="0 7 15 23 26 34 42 46 56 60 69 73 "
   fill="rgb(0,0,0)"
   y="-0"
   id="tspan313">sa4ica P = 2</tspan>
   </text>
      <text
         xml:space="preserve"
         font-family="FreeSans"
         font-style="normal"
         font-size="15"
         transform="translate(469.557,92.6073) rotate(-0,-0,-6.5)"
         font-weight="normal"
         id="text319">
    <tspan
   x="0 12 16 27 37 41 51 55 64 68 "
   fill="rgb(0,0,0)"
   y="-1"
   id="tspan317">QICA P = 2</tspan>
   </text>
      <text
         xml:space="preserve"
         font-family="FreeSans"
         font-style="normal"
         font-size="15"
         transform="translate(469.557,114.09) rotate(-0,-0,-6.5)"
         font-weight="normal"
         id="text323">
    <tspan
   x="0 11 19 23 34 44 48 58 62 71 75 "
   fill="rgb(0,0,0)"
   y="-1"
   id="tspan321">GLICA P = 2</tspan>
   </text>
      <text
         xml:space="preserve"
         font-family="FreeSans"
         font-style="normal"
         font-size="15"
         transform="translate(469.557,135.073) rotate(-0,-0,-6)"
         font-weight="normal"
         id="text327">
    <tspan
   x="0 8 20 28 33 36 44 52 56 66 70 79 83 "
   fill="rgb(0,0,0)"
   y="-0"
   id="tspan325">america P = 3</tspan>
   </text>
      <text
         xml:space="preserve"
         font-family="FreeSans"
         font-style="normal"
         font-size="15"
         transform="translate(469.557,156.556) rotate(-0,-0,-6)"
         font-weight="normal"
         id="text331">
    <tspan
   x="0 7 15 23 26 34 42 46 56 60 69 73 "
   fill="rgb(0,0,0)"
   y="-0"
   id="tspan329">sa4ica P = 3</tspan>
   </text>
      <text
         xml:space="preserve"
         font-family="FreeSans"
         font-style="normal"
         font-size="15"
         transform="translate(469.557,178.539) rotate(-0,-0,-6.5)"
         font-weight="normal"
         id="text335">
    <tspan
   x="0 12 16 27 37 41 51 55 64 68 "
   fill="rgb(0,0,0)"
   y="-1"
   id="tspan333">QICA P = 3</tspan>
   </text>
      <text
         xml:space="preserve"
         font-family="FreeSans"
         font-style="normal"
         font-size="15"
         transform="translate(469.557,200.022) rotate(-0,-0,-6.5)"
         font-weight="normal"
         id="text339">
    <tspan
   x="0 11 19 23 34 44 48 58 62 71 75 "
   fill="rgb(0,0,0)"
   y="-1"
   id="tspan337">GLICA P = 3</tspan>
   </text>
      <polyline
         stroke-width="2"
         stroke="#0000ff"
         points="434.407,43.1414 464.825,43.1414"
         stroke-linejoin="round"
         fill="none"
         stroke-linecap="butt"
         id="polyline341" />
      <polyline
         stroke-width="2"
         stroke="#0000ff"
         points="454.616,43.1414 454.121,45.3109 452.734,47.0506 450.729,48.0161 448.503,48.0161 446.499,47.0506 445.111,45.3109 444.616,43.1414 445.111,40.972 446.499,39.2323 448.503,38.2668 450.729,38.2668 452.734,39.2323 454.121,40.972 454.616,43.1414"
         stroke-linejoin="round"
         fill="none"
         stroke-linecap="round"
         id="polyline343" />
      <polyline
         stroke-width="2"
         stroke="#ff0000"
         points="434.407,64.6244 464.825,64.6244"
         stroke-linejoin="round"
         fill="none"
         stroke-linecap="butt"
         id="polyline345" />
      <polyline
         stroke-width="2"
         stroke="#ff0000"
         points="444.616,64.6244 454.616,64.6244"
         stroke-linejoin="miter"
         fill="none"
         stroke-linecap="square"
         id="polyline347" />
      <polyline
         stroke-width="2"
         stroke="#ff0000"
         points="449.616,59.6244 449.616,69.6244"
         stroke-linejoin="miter"
         fill="none"
         stroke-linecap="square"
         id="polyline349" />
      <polyline
         stroke-width="2"
         stroke="#ff00ff"
         points="434.407,86.1073 464.825,86.1073"
         stroke-linejoin="round"
         fill="none"
         stroke-linecap="butt"
         id="polyline351" />
      <polyline
         stroke-width="2"
         stroke="#ff00ff"
         points="444.616,86.1073 454.616,86.1073"
         stroke-linejoin="miter"
         fill="none"
         stroke-linecap="square"
         id="polyline353" />
      <polyline
         stroke-width="2"
         stroke="#ff00ff"
         points="449.616,81.1073 449.616,91.1073"
         stroke-linejoin="miter"
         fill="none"
         stroke-linecap="square"
         id="polyline355" />
      <polyline
         stroke-width="2"
         stroke="#ff00ff"
         points="446.081,82.5718 453.152,89.6428"
         stroke-linejoin="miter"
         fill="none"
         stroke-linecap="square"
         id="polyline357" />
      <polyline
         stroke-width="2"
         stroke="#ff00ff"
         points="446.081,89.6428 453.152,82.5718"
         stroke-linejoin="miter"
         fill="none"
         stroke-linecap="square"
         id="polyline359" />
      <polyline
         stroke-width="2"
         stroke="#00ff00"
         points="434.407,107.59 464.825,107.59"
         stroke-linejoin="round"
         fill="none"
         stroke-linecap="butt"
         id="polyline361" />
      <polyline
         stroke-width="2"
         stroke="#00ff00"
         points="444.616,102.59 454.616,112.59"
         stroke-linejoin="miter"
         fill="none"
         stroke-linecap="square"
         id="polyline363" />
      <polyline
         stroke-width="2"
         stroke="#00ff00"
         points="444.616,112.59 454.616,102.59"
         stroke-linejoin="miter"
         fill="none"
         stroke-linecap="square"
         id="polyline365" />
      <polyline
         stroke-width="2"
         stroke="#0000ff"
         points="434.407,129.073 464.825,129.073"
         stroke-linejoin="round"
         fill="none"
         stroke-dasharray="8,8,8,8"
         stroke-linecap="butt"
         id="polyline367" />
      <polyline
         stroke-width="2"
         stroke="#0000ff"
         points="454.616,129.073 454.121,131.243 452.734,132.982 450.729,133.948 448.503,133.948 446.499,132.982 445.111,131.243 444.616,129.073 445.111,126.904 446.499,125.164 448.503,124.198 450.729,124.198 452.734,125.164 454.121,126.904 454.616,129.073"
         stroke-linejoin="round"
         fill="none"
         stroke-linecap="round"
         id="polyline369" />
      <polyline
         stroke-width="2"
         stroke="#ff0000"
         points="434.407,150.556 464.825,150.556"
         stroke-linejoin="round"
         fill="none"
         stroke-dasharray="8,8,8,8"
         stroke-linecap="butt"
         id="polyline371" />
      <polyline
         stroke-width="2"
         stroke="#ff0000"
         points="444.616,150.556 454.616,150.556"
         stroke-linejoin="miter"
         fill="none"
         stroke-linecap="square"
         id="polyline373" />
      <polyline
         stroke-width="2"
         stroke="#ff0000"
         points="449.616,145.556 449.616,155.556"
         stroke-linejoin="miter"
         fill="none"
         stroke-linecap="square"
         id="polyline375" />
      <polyline
         stroke-width="2"
         stroke="#ff00ff"
         points="434.407,172.039 464.825,172.039"
         stroke-linejoin="round"
         fill="none"
         stroke-dasharray="8,8,8,8"
         stroke-linecap="butt"
         id="polyline377" />
      <polyline
         stroke-width="2"
         stroke="#ff00ff"
         points="444.616,172.039 454.616,172.039"
         stroke-linejoin="miter"
         fill="none"
         stroke-linecap="square"
         id="polyline379" />
      <polyline
         stroke-width="2"
         stroke="#ff00ff"
         points="449.616,167.039 449.616,177.039"
         stroke-linejoin="miter"
         fill="none"
         stroke-linecap="square"
         id="polyline381" />
      <polyline
         stroke-width="2"
         stroke="#ff00ff"
         points="446.081,168.503 453.152,175.574"
         stroke-linejoin="miter"
         fill="none"
         stroke-linecap="square"
         id="polyline383" />
      <polyline
         stroke-width="2"
         stroke="#ff00ff"
         points="446.081,175.574 453.152,168.503"
         stroke-linejoin="miter"
         fill="none"
         stroke-linecap="square"
         id="polyline385" />
      <polyline
         stroke-width="2"
         stroke="#00ff00"
         points="434.407,193.522 464.825,193.522"
         stroke-linejoin="round"
         fill="none"
         stroke-dasharray="8,8,8,8"
         stroke-linecap="butt"
         id="polyline387" />
      <polyline
         stroke-width="2"
         stroke="#00ff00"
         points="444.616,188.522 454.616,198.522"
         stroke-linejoin="miter"
         fill="none"
         stroke-linecap="square"
         id="polyline389" />
      <polyline
         stroke-width="2"
         stroke="#00ff00"
         points="444.616,198.522 454.616,188.522"
         stroke-linejoin="miter"
         fill="none"
         stroke-linecap="square"
         id="polyline391" />
    </g>
  </g>
</svg>
