<?xml version='1.0' encoding='UTF-8' standalone='no'?>
<svg height="432pt" xmlns="http://www.w3.org/2000/svg" width="576pt" xmlns:xlink="http://www.w3.org/1999/xlink" viewBox="0 0 576 432">
 <title>gl2ps_renderer figure</title>
 <desc>
Creator: GL2PS 1.4.0, (C) 1999-2017 C. Geuzaine
For: Octave
CreationDate: Sat May 25 01:45:45 2019
</desc>
 <defs/>
 <polygon points="0,0 576,0 576,432 0,432" fill="#ffffff"/>
 <g>
  <polygon points="0,432 576,432 576,0 0,0" shape-rendering="crispEdges" fill="#ffffff"/>
  <clipPath id="cp00576432">
   <polygon points="0,432 576,432 576,0 0,0"/>
  </clipPath>
  <g clip-path="url(#cp00576432)">
   <polygon shape-rendering="crispEdges" points="74.88,384.48 453.567,384.48 453.567,32.4 74.88,32.4" fill="#ffffff"/>
   <polyline stroke-width="0.5" points="74.88,384.48 74.88,380.692" stroke-linecap="butt" stroke-linejoin="miter" fill="none" stroke="#262626"/>
   <polyline stroke-width="0.5" points="74.88,32.4 74.88,36.1877" stroke-linecap="butt" stroke-linejoin="miter" fill="none" stroke="#262626"/>
   <polyline stroke-width="0.5" points="150.617,384.48 150.617,380.692" stroke-linecap="butt" stroke-linejoin="miter" fill="none" stroke="#262626"/>
   <polyline stroke-width="0.5" points="150.617,32.4 150.617,36.1877" stroke-linecap="butt" stroke-linejoin="miter" fill="none" stroke="#262626"/>
   <polyline stroke-width="0.5" points="226.355,384.48 226.355,380.692" stroke-linecap="butt" stroke-linejoin="miter" fill="none" stroke="#262626"/>
   <polyline stroke-width="0.5" points="226.355,32.4 226.355,36.1877" stroke-linecap="butt" stroke-linejoin="miter" fill="none" stroke="#262626"/>
   <polyline stroke-width="0.5" points="302.092,384.48 302.092,380.692" stroke-linecap="butt" stroke-linejoin="miter" fill="none" stroke="#262626"/>
   <polyline stroke-width="0.5" points="302.092,32.4 302.092,36.1877" stroke-linecap="butt" stroke-linejoin="miter" fill="none" stroke="#262626"/>
   <polyline stroke-width="0.5" points="377.829,384.48 377.829,380.692" stroke-linecap="butt" stroke-linejoin="miter" fill="none" stroke="#262626"/>
   <polyline stroke-width="0.5" points="377.829,32.4 377.829,36.1877" stroke-linecap="butt" stroke-linejoin="miter" fill="none" stroke="#262626"/>
   <polyline stroke-width="0.5" points="453.567,384.48 453.567,380.692" stroke-linecap="butt" stroke-linejoin="miter" fill="none" stroke="#262626"/>
   <polyline stroke-width="0.5" points="453.567,32.4 453.567,36.1877" stroke-linecap="butt" stroke-linejoin="miter" fill="none" stroke="#262626"/>
   <text transform="translate(70.88,407.733) rotate(-0,4,-12)" font-style="normal" font-size="15" font-family="FreeSans" xml:space="preserve" font-weight="normal">
    <tspan x="0 " y="-0" fill="rgb(38,38,38)">2</tspan>
   </text>
   <text transform="translate(146.617,407.733) rotate(-0,4,-12)" font-style="normal" font-size="15" font-family="FreeSans" xml:space="preserve" font-weight="normal">
    <tspan x="0 " y="-0" fill="rgb(38,38,38)">3</tspan>
   </text>
   <text transform="translate(222.355,407.733) rotate(-0,4,-12)" font-style="normal" font-size="15" font-family="FreeSans" xml:space="preserve" font-weight="normal">
    <tspan x="0 " y="-0" fill="rgb(38,38,38)">4</tspan>
   </text>
   <text transform="translate(298.092,407.733) rotate(-0,4,-12)" font-style="normal" font-size="15" font-family="FreeSans" xml:space="preserve" font-weight="normal">
    <tspan x="0 " y="-0" fill="rgb(38,38,38)">5</tspan>
   </text>
   <text transform="translate(373.829,407.733) rotate(-0,4,-12)" font-style="normal" font-size="15" font-family="FreeSans" xml:space="preserve" font-weight="normal">
    <tspan x="0 " y="-0" fill="rgb(38,38,38)">6</tspan>
   </text>
   <text transform="translate(449.567,407.733) rotate(-0,4,-12)" font-style="normal" font-size="15" font-family="FreeSans" xml:space="preserve" font-weight="normal">
    <tspan x="0 " y="-0" fill="rgb(38,38,38)">7</tspan>
   </text>
   <polyline stroke-width="0.5" points="74.88,384.48 78.6638,384.48" stroke-linecap="butt" stroke-linejoin="miter" fill="none" stroke="#262626"/>
   <polyline stroke-width="0.5" points="453.567,384.48 449.783,384.48" stroke-linecap="butt" stroke-linejoin="miter" fill="none" stroke="#262626"/>
   <polyline stroke-width="0.5" points="74.88,296.46 78.6638,296.46" stroke-linecap="butt" stroke-linejoin="miter" fill="none" stroke="#262626"/>
   <polyline stroke-width="0.5" points="453.567,296.46 449.783,296.46" stroke-linecap="butt" stroke-linejoin="miter" fill="none" stroke="#262626"/>
   <polyline stroke-width="0.5" points="74.88,208.44 78.6638,208.44" stroke-linecap="butt" stroke-linejoin="miter" fill="none" stroke="#262626"/>
   <polyline stroke-width="0.5" points="453.567,208.44 449.783,208.44" stroke-linecap="butt" stroke-linejoin="miter" fill="none" stroke="#262626"/>
   <polyline stroke-width="0.5" points="74.88,120.42 78.6638,120.42" stroke-linecap="butt" stroke-linejoin="miter" fill="none" stroke="#262626"/>
   <polyline stroke-width="0.5" points="453.567,120.42 449.783,120.42" stroke-linecap="butt" stroke-linejoin="miter" fill="none" stroke="#262626"/>
   <polyline stroke-width="0.5" points="74.88,32.4 78.6638,32.4" stroke-linecap="butt" stroke-linejoin="miter" fill="none" stroke="#262626"/>
   <polyline stroke-width="0.5" points="453.567,32.4 449.783,32.4" stroke-linecap="butt" stroke-linejoin="miter" fill="none" stroke="#262626"/>
   <text transform="translate(59.3862,390.48) rotate(-0,8,-6)" font-style="normal" font-size="15" font-family="FreeSans" xml:space="preserve" font-weight="normal">
    <tspan x="0 " y="-0" fill="rgb(38,38,38)">0</tspan>
   </text>
   <text transform="translate(47.3862,302.46) rotate(-0,20,-6)" font-style="normal" font-size="15" font-family="FreeSans" xml:space="preserve" font-weight="normal">
    <tspan x="0 8 12 " y="-0" fill="rgb(38,38,38)">0.5</tspan>
   </text>
   <text transform="translate(59.3862,214.44) rotate(-0,8,-6)" font-style="normal" font-size="15" font-family="FreeSans" xml:space="preserve" font-weight="normal">
    <tspan x="0 " y="-0" fill="rgb(38,38,38)">1</tspan>
   </text>
   <text transform="translate(47.3862,126.42) rotate(-0,20,-6)" font-style="normal" font-size="15" font-family="FreeSans" xml:space="preserve" font-weight="normal">
    <tspan x="0 8 12 " y="-0" fill="rgb(38,38,38)">1.5</tspan>
   </text>
   <text transform="translate(59.3862,38.4) rotate(-0,8,-6)" font-style="normal" font-size="15" font-family="FreeSans" xml:space="preserve" font-weight="normal">
    <tspan x="0 " y="-0" fill="rgb(38,38,38)">2</tspan>
   </text>
   <polyline stroke-width="0.5" points="74.88,384.48 453.567,384.48" stroke-linecap="square" stroke-dasharray="16,0" stroke-linejoin="miter" fill="none" stroke="#262626"/>
   <polyline stroke-width="0.5" points="74.88,32.4 453.567,32.4" stroke-linecap="square" stroke-dasharray="16,0" stroke-linejoin="miter" fill="none" stroke="#262626"/>
   <polyline stroke-width="0.5" points="74.88,384.48 74.88,32.4" stroke-linecap="square" stroke-dasharray="16,0" stroke-linejoin="miter" fill="none" stroke="#262626"/>
   <polyline stroke-width="0.5" points="453.567,384.48 453.567,32.4" stroke-linecap="square" stroke-dasharray="16,0" stroke-linejoin="miter" fill="none" stroke="#262626"/>
   <text transform="translate(197.723,429.733) rotate(-0,66.5,-17)" font-style="normal" font-size="16.5" font-family="FreeSans" xml:space="preserve" font-weight="normal">
    <tspan x="0 9 20 26 39 48 53 62 66 75 84 88 93 102 111 116 125 " y="-1" fill="rgb(38,38,38)">número de fontes</tspan>
   </text>
   <text transform="translate(-44.6138,208.44) rotate(-90,87,0)" font-style="normal" font-size="16.5" font-family="FreeSans" xml:space="preserve" font-weight="normal">
    <tspan x="0 8 17 22 27 36 40 49 60 69 80 89 98 102 107 116 121 130 134 138 143 152 156 161 169 " y="-4" fill="rgb(38,38,38)">correlação total [bits]</tspan>
   </text>
   <text transform="translate(128.723,22.4) rotate(-0,135.5,0)" font-style="normal" font-size="16.5" font-family="FreeSans" xml:space="preserve" font-weight="bold">
    <tspan x="0 9 19 25 31 41 45 54 66 75 87 96 106 111 117 127 133 142 146 150 155 166 171 181 186 195 199 204 215 220 230 235 244 253 262 " y="-3" fill="rgb(0,0,0)">correlação total, P = 5, T = 4096</tspan>
   </text>
   <polyline stroke-width="2" points="74.88,383.953 150.617,381.303 226.355,370.478 302.092,339.782 377.829,271.312 453.567,143.556" stroke-linecap="butt" stroke-linejoin="round" fill="none" stroke="#0000ff"/>
   <polyline stroke-width="2" points="81.38,383.953 81.1167,385.785 80.3482,387.468 79.1366,388.866 77.5802,389.866 75.805,390.387 73.9549,390.387 72.1798,389.866 70.6234,388.866 69.4118,387.468 68.6433,385.785 68.38,383.953 68.6433,382.122 69.4118,380.439 70.6234,379.041 72.1798,378.041 73.9549,377.52 75.805,377.52 77.5802,378.041 79.1366,379.041 80.3482,380.439 81.1167,382.122 81.38,383.953 81.38,383.953" stroke-linecap="round" stroke-linejoin="round" fill="none" stroke="#0000ff"/>
   <polyline stroke-width="2" points="157.117,381.303 156.854,383.134 156.085,384.817 154.874,386.215 153.318,387.216 151.542,387.737 149.692,387.737 147.917,387.216 146.361,386.215 145.149,384.817 144.381,383.134 144.117,381.303 144.381,379.472 145.149,377.789 146.361,376.391 147.917,375.39 149.692,374.869 151.542,374.869 153.318,375.39 154.874,376.391 156.085,377.789 156.854,379.472 157.117,381.303 157.117,381.303" stroke-linecap="round" stroke-linejoin="round" fill="none" stroke="#0000ff"/>
   <polyline stroke-width="2" points="232.855,370.478 232.591,372.309 231.823,373.992 230.611,375.39 229.055,376.391 227.28,376.912 225.43,376.912 223.654,376.391 222.098,375.39 220.887,373.992 220.118,372.309 219.855,370.478 220.118,368.647 220.887,366.964 222.098,365.566 223.654,364.565 225.43,364.044 227.28,364.044 229.055,364.565 230.611,365.566 231.823,366.964 232.591,368.647 232.855,370.478 232.855,370.478" stroke-linecap="round" stroke-linejoin="round" fill="none" stroke="#0000ff"/>
   <polyline stroke-width="2" points="308.592,339.782 308.329,341.613 307.56,343.296 306.349,344.694 304.792,345.694 303.017,346.216 301.167,346.216 299.392,345.694 297.835,344.694 296.624,343.296 295.855,341.613 295.592,339.782 295.855,337.951 296.624,336.268 297.835,334.869 299.392,333.869 301.167,333.348 303.017,333.348 304.792,333.869 306.349,334.869 307.56,336.268 308.329,337.951 308.592,339.782 308.592,339.782" stroke-linecap="round" stroke-linejoin="round" fill="none" stroke="#0000ff"/>
   <polyline stroke-width="2" points="384.329,271.312 384.066,273.143 383.297,274.826 382.086,276.224 380.53,277.224 378.754,277.746 376.904,277.746 375.129,277.224 373.573,276.224 372.361,274.826 371.593,273.143 371.329,271.312 371.593,269.48 372.361,267.798 373.573,266.399 375.129,265.399 376.904,264.878 378.754,264.878 380.53,265.399 382.086,266.399 383.297,267.798 384.066,269.48 384.329,271.312 384.329,271.312" stroke-linecap="round" stroke-linejoin="round" fill="none" stroke="#0000ff"/>
   <polyline stroke-width="2" points="460.067,143.556 459.803,145.387 459.035,147.07 457.823,148.468 456.267,149.468 454.492,149.99 452.642,149.99 450.866,149.468 449.31,148.468 448.098,147.07 447.33,145.387 447.067,143.556 447.33,141.725 448.098,140.042 449.31,138.643 450.866,137.643 452.642,137.122 454.492,137.122 456.267,137.643 457.823,138.643 459.035,140.042 459.803,141.725 460.067,143.556 460.067,143.556" stroke-linecap="round" stroke-linejoin="round" fill="none" stroke="#0000ff"/>
   <polyline stroke-width="2" points="74.88,383.953 150.617,381.303 226.355,370.478 302.092,339.782 377.829,271.312 453.567,35.2895" stroke-linecap="butt" stroke-linejoin="round" fill="none" stroke="#ff0000"/>
   <polyline stroke-width="2" points="68.38,383.953 81.38,383.953" stroke-linecap="square" stroke-linejoin="miter" fill="none" stroke="#ff0000"/>
   <polyline stroke-width="2" points="74.88,377.453 74.88,390.453" stroke-linecap="square" stroke-linejoin="miter" fill="none" stroke="#ff0000"/>
   <polyline stroke-width="2" points="144.117,381.303 157.117,381.303" stroke-linecap="square" stroke-linejoin="miter" fill="none" stroke="#ff0000"/>
   <polyline stroke-width="2" points="150.617,374.803 150.617,387.803" stroke-linecap="square" stroke-linejoin="miter" fill="none" stroke="#ff0000"/>
   <polyline stroke-width="2" points="219.855,370.478 232.855,370.478" stroke-linecap="square" stroke-linejoin="miter" fill="none" stroke="#ff0000"/>
   <polyline stroke-width="2" points="226.355,363.978 226.355,376.978" stroke-linecap="square" stroke-linejoin="miter" fill="none" stroke="#ff0000"/>
   <polyline stroke-width="2" points="295.592,339.782 308.592,339.782" stroke-linecap="square" stroke-linejoin="miter" fill="none" stroke="#ff0000"/>
   <polyline stroke-width="2" points="302.092,333.282 302.092,346.282" stroke-linecap="square" stroke-linejoin="miter" fill="none" stroke="#ff0000"/>
   <polyline stroke-width="2" points="371.329,271.312 384.329,271.312" stroke-linecap="square" stroke-linejoin="miter" fill="none" stroke="#ff0000"/>
   <polyline stroke-width="2" points="377.829,264.812 377.829,277.812" stroke-linecap="square" stroke-linejoin="miter" fill="none" stroke="#ff0000"/>
   <polyline stroke-width="2" points="447.067,35.2895 460.067,35.2895" stroke-linecap="square" stroke-linejoin="miter" fill="none" stroke="#ff0000"/>
   <polyline stroke-width="2" points="453.567,28.7895 453.567,41.7895" stroke-linecap="square" stroke-linejoin="miter" fill="none" stroke="#ff0000"/>
   <polyline stroke-width="2" points="74.88,383.953 150.617,381.303 226.355,370.478 302.092,339.782 377.829,271.312 453.567,143.556" stroke-linecap="butt" stroke-linejoin="round" fill="none" stroke="#00ff00"/>
   <polyline stroke-width="2" points="68.38,377.453 81.38,390.453" stroke-linecap="square" stroke-linejoin="miter" fill="none" stroke="#00ff00"/>
   <polyline stroke-width="2" points="68.38,390.453 81.38,377.453" stroke-linecap="square" stroke-linejoin="miter" fill="none" stroke="#00ff00"/>
   <polyline stroke-width="2" points="144.117,374.803 157.117,387.803" stroke-linecap="square" stroke-linejoin="miter" fill="none" stroke="#00ff00"/>
   <polyline stroke-width="2" points="144.117,387.803 157.117,374.803" stroke-linecap="square" stroke-linejoin="miter" fill="none" stroke="#00ff00"/>
   <polyline stroke-width="2" points="219.855,363.978 232.855,376.978" stroke-linecap="square" stroke-linejoin="miter" fill="none" stroke="#00ff00"/>
   <polyline stroke-width="2" points="219.855,376.978 232.855,363.978" stroke-linecap="square" stroke-linejoin="miter" fill="none" stroke="#00ff00"/>
   <polyline stroke-width="2" points="295.592,333.282 308.592,346.282" stroke-linecap="square" stroke-linejoin="miter" fill="none" stroke="#00ff00"/>
   <polyline stroke-width="2" points="295.592,346.282 308.592,333.282" stroke-linecap="square" stroke-linejoin="miter" fill="none" stroke="#00ff00"/>
   <polyline stroke-width="2" points="371.329,264.812 384.329,277.812" stroke-linecap="square" stroke-linejoin="miter" fill="none" stroke="#00ff00"/>
   <polyline stroke-width="2" points="371.329,277.812 384.329,264.812" stroke-linecap="square" stroke-linejoin="miter" fill="none" stroke="#00ff00"/>
   <polyline stroke-width="2" points="447.067,137.056 460.067,150.056" stroke-linecap="square" stroke-linejoin="miter" fill="none" stroke="#00ff00"/>
   <polyline stroke-width="2" points="447.067,150.056 460.067,137.056" stroke-linecap="square" stroke-linejoin="miter" fill="none" stroke="#00ff00"/>
  </g>
  <clipPath id="cp00576432">
   <polygon points="0,432 576,432 576,0 0,0"/>
  </clipPath>
  <g clip-path="url(#cp00576432)">
   <polygon shape-rendering="crispEdges" points="469.79,96.8488 567.889,96.8488 567.889,32.4 469.79,32.4" fill="#ffffff"/>
   <polyline stroke-width="0.5" points="469.79,96.8488 567.889,96.8488" stroke-linecap="square" stroke-dasharray="16,0" stroke-linejoin="miter" fill="none" stroke="#262626"/>
   <polyline stroke-width="0.5" points="469.79,32.4 567.889,32.4" stroke-linecap="square" stroke-dasharray="16,0" stroke-linejoin="miter" fill="none" stroke="#262626"/>
   <polyline stroke-width="0.5" points="469.79,96.8488 469.79,32.4" stroke-linecap="square" stroke-dasharray="16,0" stroke-linejoin="miter" fill="none" stroke="#262626"/>
   <polyline stroke-width="0.5" points="567.889,96.8488 567.889,32.4" stroke-linecap="square" stroke-dasharray="16,0" stroke-linejoin="miter" fill="none" stroke="#262626"/>
   <text transform="translate(509.671,49.1415) rotate(-0,-0,-6)" font-style="normal" font-size="15" font-family="FreeSans" xml:space="preserve" font-weight="normal">
    <tspan x="0 8 20 28 33 36 44 " y="-0" fill="rgb(0,0,0)">america</tspan>
   </text>
   <text transform="translate(509.671,70.6244) rotate(-0,-0,-6)" font-style="normal" font-size="15" font-family="FreeSans" xml:space="preserve" font-weight="normal">
    <tspan x="0 7 15 23 26 34 " y="-0" fill="rgb(0,0,0)">sa4ica</tspan>
   </text>
   <text transform="translate(509.671,92.6073) rotate(-0,-0,-6.5)" font-style="normal" font-size="15" font-family="FreeSans" xml:space="preserve" font-weight="normal">
    <tspan x="0 11 19 23 34 " y="-1" fill="rgb(0,0,0)">GLICA</tspan>
   </text>
   <polyline stroke-width="2" points="474.521,43.1414 504.939,43.1414" stroke-linecap="butt" stroke-linejoin="round" fill="none" stroke="#0000ff"/>
   <polyline stroke-width="2" points="494.73,43.1414 494.235,45.3109 492.848,47.0506 490.843,48.0161 488.618,48.0161 486.613,47.0506 485.225,45.3109 484.73,43.1414 485.225,40.972 486.613,39.2323 488.618,38.2668 490.843,38.2668 492.848,39.2323 494.235,40.972 494.73,43.1414" stroke-linecap="round" stroke-linejoin="round" fill="none" stroke="#0000ff"/>
   <polyline stroke-width="2" points="474.521,64.6244 504.939,64.6244" stroke-linecap="butt" stroke-linejoin="round" fill="none" stroke="#ff0000"/>
   <polyline stroke-width="2" points="484.73,64.6244 494.73,64.6244" stroke-linecap="square" stroke-linejoin="miter" fill="none" stroke="#ff0000"/>
   <polyline stroke-width="2" points="489.73,59.6244 489.73,69.6244" stroke-linecap="square" stroke-linejoin="miter" fill="none" stroke="#ff0000"/>
   <polyline stroke-width="2" points="474.521,86.1073 504.939,86.1073" stroke-linecap="butt" stroke-linejoin="round" fill="none" stroke="#00ff00"/>
   <polyline stroke-width="2" points="484.73,81.1073 494.73,91.1073" stroke-linecap="square" stroke-linejoin="miter" fill="none" stroke="#00ff00"/>
   <polyline stroke-width="2" points="484.73,91.1073 494.73,81.1073" stroke-linecap="square" stroke-linejoin="miter" fill="none" stroke="#00ff00"/>
  </g>
 </g>
</svg>
